HIERARCHY
ROOT joint_0
{
	OFFSET 0.000000 0.000000 0.000000
	CHANNELS 6 Xposition Yposition Zposition Zrotation Yrotation Xrotation 
	JOINT joint_1
	{
		OFFSET 14.113007 -2.961990 123.953979
		CHANNELS 3 Zrotation Yrotation Xrotation
		JOINT joint_2
		{
			OFFSET 0.764000 -2.434006 113.871948
			CHANNELS 3 Zrotation Yrotation Xrotation
			JOINT joint_3
			{
				OFFSET 0.186996 -2.169998 113.753052
				CHANNELS 3 Zrotation Yrotation Xrotation
				JOINT joint_4
				{
					OFFSET 16.096001 -2.720001 160.853027
					CHANNELS 3 Zrotation Yrotation Xrotation
					JOINT joint_5
					{
						OFFSET 34.392006 -0.188995 92.567017
						CHANNELS 3 Zrotation Yrotation Xrotation
						End Site
						{
							OFFSET 0.000000 0.000000 0.000000
						}
					}
				}
				JOINT joint_6
				{
					OFFSET 9.183998 -36.684006 89.597046
					CHANNELS 3 Zrotation Yrotation Xrotation
					JOINT joint_7
					{
						OFFSET 0.486000 -164.365997 -28.984009
						CHANNELS 3 Zrotation Yrotation Xrotation
						JOINT joint_8
						{
							OFFSET 38.899002 -34.967010 -291.651978
							CHANNELS 3 Zrotation Yrotation Xrotation
							JOINT joint_9
							{
								OFFSET 41.714005 -45.890991 -258.857056
								CHANNELS 3 Zrotation Yrotation Xrotation
								End Site
								{
									OFFSET 0.000000 0.000000 0.000000
								}
							}
						}
					}
				}
				JOINT joint_10
				{
					OFFSET 8.867004 33.650002 90.817993
					CHANNELS 3 Zrotation Yrotation Xrotation
					JOINT joint_11
					{
						OFFSET 0.018997 164.299999 -29.368042
						CHANNELS 3 Zrotation Yrotation Xrotation
						JOINT joint_12
						{
							OFFSET 29.440994 30.887997 -293.216919
							CHANNELS 3 Zrotation Yrotation Xrotation
							JOINT joint_13
							{
								OFFSET 46.174011 54.490005 -256.422058
								CHANNELS 3 Zrotation Yrotation Xrotation
								End Site
								{
									OFFSET 0.000000 0.000000 0.000000
								}
							}
						}
					}
				}
			}
		}
	}
	JOINT joint_14
	{
		OFFSET -2.264000 -89.466995 -116.150024
		CHANNELS 3 Zrotation Yrotation Xrotation
		JOINT joint_15
		{
			OFFSET -16.400993 -17.452988 -493.781982
			CHANNELS 3 Zrotation Yrotation Xrotation
			JOINT joint_16
			{
				OFFSET -50.497004 -13.404022 -424.754013
				CHANNELS 3 Zrotation Yrotation Xrotation
				JOINT joint_17
				{
					OFFSET 198.546007 -19.341003 -89.309000
					CHANNELS 3 Zrotation Yrotation Xrotation
					End Site
					{
						OFFSET 0.000000 0.000000 0.000000
					}
				}
			}
		}
	}
	JOINT joint_18
	{
		OFFSET -0.867996 96.016006 -110.817993
		CHANNELS 3 Zrotation Yrotation Xrotation
		JOINT joint_19
		{
			OFFSET -10.130997 24.658998 -493.645020
			CHANNELS 3 Zrotation Yrotation Xrotation
			JOINT joint_20
			{
				OFFSET -48.871004 19.434999 -424.714005
				CHANNELS 3 Zrotation Yrotation Xrotation
				JOINT joint_21
				{
					OFFSET 195.579996 24.926001 -94.327003
					CHANNELS 3 Zrotation Yrotation Xrotation
					End Site
					{
						OFFSET 0.000000 0.000000 0.000000
					}
				}
			}
		}
	}
}
MOTION
Frames: 6
Frame Time: 0.016667
68.545000 -171.799000 1138.357060 -3.900852 -3.481659 -1.565442 -0.431556 -0.256308 0.795291 -0.423269 0.039102 -0.209443 -0.425522 -0.045454 0.114705 -0.780444 0.103926 2.108464 0.000000 0.000000 0.000000 2.175690 3.034718 -0.036595 -0.259807 3.464855 1.052735 0.258900 1.851778 3.590827 0.000000 0.000000 0.000000 -1.775069 1.086751 0.802130 0.419998 1.477637 0.282533 -0.048507 6.620946 -9.989098 0.000000 0.000000 0.000000 -0.378032 3.021246 -0.910566 -0.402631 2.377382 0.407811 -0.108401 -4.018176 -0.439958 0.000000 0.000000 0.000000 -0.053273 2.208230 3.538112 0.017977 2.665177 0.208039 -0.302460 -3.805834 0.339009 0.000000 0.000000 0.000000 
69.027000 -171.700000 1138.350950 -3.927483 -3.408755 -1.555132 -0.432741 -0.247651 0.792419 -0.424483 0.037473 -0.209340 -0.426654 -0.043045 0.114260 -0.777579 0.049844 2.101704 0.000000 0.000000 0.000000 2.172379 3.046414 -0.042977 -0.254957 3.475276 1.070084 0.264476 1.834663 3.606477 0.000000 0.000000 0.000000 -1.760564 1.097427 0.816784 0.418724 1.485508 0.267877 -0.051811 6.612325 -10.009446 0.000000 0.000000 0.000000 -0.368292 2.971025 -0.928444 -0.394803 2.361783 0.406660 -0.101483 -4.016858 -0.436729 0.000000 0.000000 0.000000 -0.042337 2.168573 3.515590 0.029751 2.646666 0.214921 -0.290830 -3.827339 0.347321 0.000000 0.000000 0.000000 
69.587000 -171.602010 1138.336060 -3.955435 -3.318232 -1.543071 -0.433738 -0.237756 0.789124 -0.425518 0.035689 -0.207195 -0.427609 -0.041165 0.112612 -0.773532 -0.023437 2.091961 0.000000 0.000000 0.000000 2.157145 3.060206 -0.049821 -0.249707 3.485634 1.083476 0.271474 1.813655 3.626424 0.000000 0.000000 0.000000 -1.748716 1.110355 0.826969 0.418616 1.496293 0.258575 -0.054758 6.604396 -10.030681 0.000000 0.000000 0.000000 -0.357821 2.908174 -0.949734 -0.386779 2.342198 0.408930 -0.093820 -4.021783 -0.433776 0.000000 0.000000 0.000000 -0.031523 2.115055 3.492942 0.042180 2.627558 0.218424 -0.279359 -3.856537 0.356533 0.000000 0.000000 0.000000 
70.246000 -171.509990 1138.314940 -3.984402 -3.210058 -1.529691 -0.435763 -0.228643 0.786928 -0.427532 0.034172 -0.206066 -0.429556 -0.039408 0.111756 -0.768237 -0.112450 2.079048 0.000000 0.000000 0.000000 2.136967 3.077060 -0.058854 -0.244055 3.498143 1.096111 0.279216 1.790269 3.648287 0.000000 0.000000 0.000000 -1.734235 1.126967 0.835074 0.419177 1.510405 0.251441 -0.057720 6.596490 -10.053693 0.000000 0.000000 0.000000 -0.346646 2.834794 -0.972816 -0.378324 2.316571 0.412405 -0.085540 -4.031674 -0.431030 0.000000 0.000000 0.000000 -0.020859 2.051832 3.469901 0.054661 2.601697 0.220318 -0.267998 -3.891380 0.366407 0.000000 0.000000 0.000000 
71.099000 -171.452000 1138.288940 -4.016765 -3.077993 -1.515629 -0.438918 -0.221865 0.785263 -0.430606 0.033145 -0.204445 -0.432568 -0.037515 0.109776 -0.763903 -0.213120 2.069004 0.000000 0.000000 0.000000 2.116918 3.100402 -0.071978 -0.237959 3.517156 1.114451 0.285712 1.772312 3.668638 0.000000 0.000000 0.000000 -1.714655 1.151080 0.845386 0.421147 1.531350 0.243794 -0.059467 6.592900 -10.077611 0.000000 0.000000 0.000000 -0.334283 2.751140 -0.993228 -0.368460 2.280427 0.411190 -0.076577 -4.044452 -0.428259 0.000000 0.000000 0.000000 -0.009626 1.983313 3.448696 0.067141 2.557621 0.220149 -0.256074 -3.928196 0.376795 0.000000 0.000000 0.000000 
72.127000 -171.427990 1138.260990 -4.050646 -2.920394 -1.500705 -0.443797 -0.216751 0.784393 -0.435346 0.031477 -0.204514 -0.437212 -0.034179 0.109505 -0.760545 -0.333310 2.061934 0.000000 0.000000 0.000000 2.101768 3.130527 -0.088813 -0.231625 3.543854 1.137158 0.290966 1.758238 3.686011 0.000000 0.000000 0.000000 -1.687961 1.182143 0.855514 0.424304 1.558182 0.236564 -0.060259 6.592383 -10.101439 0.000000 0.000000 0.000000 -0.321180 2.651972 -1.009759 -0.357819 2.238731 0.402164 -0.067827 -4.058824 -0.425737 0.000000 0.000000 0.000000 0.001419 1.904795 3.429239 0.079254 2.497908 0.217371 -0.243998 -3.964753 0.387219 0.000000 0.000000 0.000000 
